<svg width="200" height="100" viewBox="0 0 200 100" fill="none" xmlns="http://www.w3.org/2000/svg">
<rect width="200" height="100" fill="black"/>
<path d="M22.7627 82V81.72C23.08 81.7013 23.318 81.664 23.4767 81.608C23.6447 81.552 23.7567 81.44 23.8127 81.272C23.8687 81.104 23.8967 80.852 23.8967 80.516V73.572C23.8967 73.2267 23.8687 72.9747 23.8127 72.816C23.7567 72.648 23.6447 72.536 23.4767 72.48C23.318 72.4147 23.08 72.3773 22.7627 72.368V72.088C22.9773 72.0973 23.248 72.1067 23.5747 72.116C23.9013 72.1253 24.2233 72.13 24.5407 72.13C24.9047 72.13 25.2453 72.1253 25.5627 72.116C25.88 72.1067 26.1367 72.0973 26.3327 72.088V72.368C26.0153 72.3773 25.7727 72.4147 25.6047 72.48C25.446 72.536 25.3387 72.648 25.2827 72.816C25.2267 72.9747 25.1987 73.2267 25.1987 73.572V80.516C25.1987 80.852 25.2267 81.104 25.2827 81.272C25.3387 81.44 25.446 81.552 25.6047 81.608C25.7727 81.664 26.0153 81.7013 26.3327 81.72V82C26.1367 81.9813 25.88 81.972 25.5627 81.972C25.2453 81.9627 24.9047 81.958 24.5407 81.958C24.2233 81.958 23.9013 81.9627 23.5747 81.972C23.248 81.972 22.9773 81.9813 22.7627 82ZM16.9107 82V81.72C17.228 81.7013 17.466 81.664 17.6247 81.608C17.7927 81.552 17.9047 81.44 17.9607 81.272C18.0167 81.104 18.0447 80.852 18.0447 80.516V73.572C18.0447 73.2267 18.0167 72.9747 17.9607 72.816C17.9047 72.648 17.7927 72.536 17.6247 72.48C17.466 72.4147 17.228 72.3773 16.9107 72.368V72.088C17.1067 72.0973 17.3633 72.1067 17.6807 72.116C17.998 72.1253 18.3387 72.13 18.7027 72.13C19.0293 72.13 19.3513 72.1253 19.6687 72.116C19.9953 72.1067 20.266 72.0973 20.4807 72.088V72.368C20.1633 72.3773 19.9207 72.4147 19.7527 72.48C19.594 72.536 19.4867 72.648 19.4307 72.816C19.3747 72.9747 19.3467 73.2267 19.3467 73.572V80.516C19.3467 80.852 19.3747 81.104 19.4307 81.272C19.4867 81.44 19.594 81.552 19.7527 81.608C19.9207 81.664 20.1633 81.7013 20.4807 81.72V82C20.266 81.9813 19.9953 81.972 19.6687 81.972C19.3513 81.9627 19.0293 81.958 18.7027 81.958C18.3387 81.958 17.998 81.9627 17.6807 81.972C17.3633 81.972 17.1067 81.9813 16.9107 82ZM18.8567 77.156V76.876H24.3867V77.156H18.8567ZM39.3924 72.088C39.355 72.4147 39.327 72.732 39.3084 73.04C39.299 73.348 39.2944 73.5813 39.2944 73.74C39.2944 73.908 39.299 74.0713 39.3084 74.23C39.3177 74.3793 39.327 74.5053 39.3364 74.608H39.0144C38.9584 74.0573 38.879 73.6233 38.7764 73.306C38.6737 72.9793 38.4964 72.7507 38.2444 72.62C38.0017 72.48 37.633 72.41 37.1384 72.41H35.9764C35.659 72.41 35.4164 72.438 35.2484 72.494C35.0897 72.5407 34.9824 72.648 34.9264 72.816C34.8704 72.9747 34.8424 73.2267 34.8424 73.572V80.516C34.8424 80.852 34.8704 81.104 34.9264 81.272C34.9824 81.44 35.0897 81.552 35.2484 81.608C35.4164 81.6547 35.659 81.678 35.9764 81.678H36.9984C37.5864 81.678 38.0297 81.5987 38.3284 81.44C38.6364 81.2813 38.8557 81.0247 38.9864 80.67C39.1264 80.306 39.229 79.816 39.2944 79.2H39.6164C39.5884 79.452 39.5744 79.788 39.5744 80.208C39.5744 80.3853 39.579 80.642 39.5884 80.978C39.607 81.3047 39.635 81.6453 39.6724 82C39.1964 81.9813 38.6597 81.972 38.0624 81.972C37.465 81.9627 36.933 81.958 36.4664 81.958C36.261 81.958 35.995 81.958 35.6684 81.958C35.351 81.958 35.0057 81.9627 34.6324 81.972C34.259 81.972 33.881 81.9767 33.4984 81.986C33.1157 81.986 32.7517 81.9907 32.4064 82V81.72C32.7237 81.7013 32.9617 81.664 33.1204 81.608C33.2884 81.552 33.4004 81.44 33.4564 81.272C33.5124 81.104 33.5404 80.852 33.5404 80.516V73.572C33.5404 73.2267 33.5124 72.9747 33.4564 72.816C33.4004 72.648 33.2884 72.536 33.1204 72.48C32.9617 72.4147 32.7237 72.3773 32.4064 72.368V72.088C32.7517 72.0973 33.1157 72.1067 33.4984 72.116C33.881 72.116 34.259 72.1207 34.6324 72.13C35.0057 72.13 35.351 72.13 35.6684 72.13C35.995 72.13 36.261 72.13 36.4664 72.13C36.8957 72.13 37.381 72.13 37.9224 72.13C38.473 72.1207 38.963 72.1067 39.3924 72.088ZM36.9844 76.876C36.9844 76.876 36.9844 76.9227 36.9844 77.016C36.9844 77.1093 36.9844 77.156 36.9844 77.156H34.4224C34.4224 77.156 34.4224 77.1093 34.4224 77.016C34.4224 76.9227 34.4224 76.876 34.4224 76.876H36.9844ZM37.3904 75.028C37.353 75.56 37.3344 75.966 37.3344 76.246C37.3437 76.526 37.3484 76.7827 37.3484 77.016C37.3484 77.2493 37.353 77.506 37.3624 77.786C37.3717 78.066 37.395 78.472 37.4324 79.004H37.1104C37.073 78.7053 37.0264 78.416 36.9704 78.136C36.9237 77.8467 36.8117 77.6133 36.6344 77.436C36.4664 77.2493 36.177 77.156 35.7664 77.156V76.876C36.0744 76.876 36.3077 76.8153 36.4664 76.694C36.6344 76.5633 36.7557 76.4 36.8304 76.204C36.905 76.008 36.9564 75.8073 36.9844 75.602C37.0124 75.3873 37.0404 75.196 37.0684 75.028H37.3904ZM49.7716 72.018L53.1876 80.824C53.3276 81.1787 53.4863 81.4167 53.6636 81.538C53.8409 81.65 54.0043 81.7107 54.1536 81.72V82C53.9669 81.9813 53.7383 81.972 53.4676 81.972C53.1969 81.9627 52.9263 81.958 52.6556 81.958C52.2916 81.958 51.9509 81.9627 51.6336 81.972C51.3163 81.972 51.0596 81.9813 50.8636 82V81.72C51.3396 81.7013 51.6429 81.622 51.7736 81.482C51.9043 81.3327 51.8763 81.02 51.6896 80.544L49.0856 73.586L49.3096 73.404L46.8736 79.732C46.7243 80.1053 46.6356 80.4227 46.6076 80.684C46.5796 80.936 46.6029 81.1367 46.6776 81.286C46.7616 81.4353 46.8969 81.5427 47.0836 81.608C47.2796 81.6733 47.5223 81.7107 47.8116 81.72V82C47.5503 81.9813 47.2749 81.972 46.9856 81.972C46.7056 81.9627 46.4443 81.958 46.2016 81.958C45.9683 81.958 45.7676 81.9627 45.5996 81.972C45.4409 81.972 45.2916 81.9813 45.1516 82V81.72C45.3383 81.6733 45.5296 81.566 45.7256 81.398C45.9216 81.2207 46.0989 80.922 46.2576 80.502L49.5476 72.018C49.5849 72.018 49.6223 72.018 49.6596 72.018C49.6969 72.018 49.7343 72.018 49.7716 72.018ZM51.4796 77.968V78.248H47.3076L47.4476 77.968H51.4796ZM62.8525 72.088V72.368C62.5352 72.3773 62.2925 72.4147 62.1245 72.48C61.9659 72.536 61.8585 72.648 61.8025 72.816C61.7465 72.9747 61.7185 73.2267 61.7185 73.572V80.516C61.7185 80.852 61.7465 81.104 61.8025 81.272C61.8585 81.44 61.9659 81.552 62.1245 81.608C62.2925 81.6547 62.5352 81.678 62.8525 81.678H63.8745C64.3132 81.678 64.6679 81.6313 64.9385 81.538C65.2185 81.4447 65.4379 81.3 65.5965 81.104C65.7645 80.8987 65.8905 80.628 65.9745 80.292C66.0585 79.956 66.1239 79.5453 66.1705 79.06H66.4925C66.4645 79.3493 66.4505 79.732 66.4505 80.208C66.4505 80.3853 66.4552 80.642 66.4645 80.978C66.4832 81.3047 66.5112 81.6453 66.5485 82C66.0725 81.9813 65.5359 81.972 64.9385 81.972C64.3412 81.9627 63.8092 81.958 63.3425 81.958C63.1372 81.958 62.8712 81.958 62.5445 81.958C62.2272 81.958 61.8819 81.9627 61.5085 81.972C61.1352 81.972 60.7572 81.9767 60.3745 81.986C59.9919 81.986 59.6279 81.9907 59.2825 82V81.72C59.5999 81.7013 59.8379 81.664 59.9965 81.608C60.1645 81.552 60.2765 81.44 60.3325 81.272C60.3885 81.104 60.4165 80.852 60.4165 80.516V73.572C60.4165 73.2267 60.3885 72.9747 60.3325 72.816C60.2765 72.648 60.1645 72.536 59.9965 72.48C59.8379 72.4147 59.5999 72.3773 59.2825 72.368V72.088C59.4785 72.0973 59.7352 72.1067 60.0525 72.116C60.3699 72.1253 60.7105 72.13 61.0745 72.13C61.4012 72.13 61.7232 72.1253 62.0405 72.116C62.3672 72.1067 62.6379 72.0973 62.8525 72.088ZM79.1286 72.088C79.0913 72.4427 79.0633 72.788 79.0446 73.124C79.0353 73.4507 79.0306 73.7027 79.0306 73.88C79.0306 74.104 79.0353 74.314 79.0446 74.51C79.054 74.706 79.0633 74.8787 79.0726 75.028H78.7506C78.6853 74.3747 78.5966 73.8613 78.4846 73.488C78.3726 73.1053 78.1766 72.83 77.8966 72.662C77.6166 72.494 77.1826 72.41 76.5946 72.41H75.8386V80.376C75.8386 80.7493 75.8713 81.0293 75.9366 81.216C76.0113 81.4027 76.1513 81.5287 76.3566 81.594C76.562 81.6593 76.8606 81.7013 77.2526 81.72V82C77.01 81.9813 76.702 81.972 76.3286 81.972C75.9553 81.9627 75.5773 81.958 75.1946 81.958C74.7746 81.958 74.378 81.9627 74.0046 81.972C73.6406 81.972 73.3466 81.9813 73.1226 82V81.72C73.5146 81.7013 73.8133 81.6593 74.0186 81.594C74.224 81.5287 74.3593 81.4027 74.4246 81.216C74.4993 81.0293 74.5366 80.7493 74.5366 80.376V72.41H73.7806C73.202 72.41 72.768 72.494 72.4786 72.662C72.1986 72.83 72.0026 73.1053 71.8906 73.488C71.7786 73.8613 71.69 74.3747 71.6246 75.028H71.3026C71.3213 74.8787 71.3306 74.706 71.3306 74.51C71.34 74.314 71.3446 74.104 71.3446 73.88C71.3446 73.7027 71.3353 73.4507 71.3166 73.124C71.3073 72.788 71.284 72.4427 71.2466 72.088C71.6386 72.0973 72.0633 72.1067 72.5206 72.116C72.9873 72.1253 73.454 72.13 73.9206 72.13C74.3873 72.13 74.812 72.13 75.1946 72.13C75.5773 72.13 75.9973 72.13 76.4546 72.13C76.9213 72.13 77.388 72.1253 77.8546 72.116C78.3213 72.1067 78.746 72.0973 79.1286 72.088ZM90.8759 82V81.72C91.1933 81.7013 91.4313 81.664 91.5899 81.608C91.7579 81.552 91.8699 81.44 91.9259 81.272C91.9819 81.104 92.0099 80.852 92.0099 80.516V73.572C92.0099 73.2267 91.9819 72.9747 91.9259 72.816C91.8699 72.648 91.7579 72.536 91.5899 72.48C91.4313 72.4147 91.1933 72.3773 90.8759 72.368V72.088C91.0906 72.0973 91.3613 72.1067 91.6879 72.116C92.0146 72.1253 92.3366 72.13 92.6539 72.13C93.0179 72.13 93.3586 72.1253 93.6759 72.116C93.9933 72.1067 94.2499 72.0973 94.4459 72.088V72.368C94.1286 72.3773 93.8859 72.4147 93.7179 72.48C93.5593 72.536 93.4519 72.648 93.3959 72.816C93.3399 72.9747 93.3119 73.2267 93.3119 73.572V80.516C93.3119 80.852 93.3399 81.104 93.3959 81.272C93.4519 81.44 93.5593 81.552 93.7179 81.608C93.8859 81.664 94.1286 81.7013 94.4459 81.72V82C94.2499 81.9813 93.9933 81.972 93.6759 81.972C93.3586 81.9627 93.0179 81.958 92.6539 81.958C92.3366 81.958 92.0146 81.9627 91.6879 81.972C91.3613 81.972 91.0906 81.9813 90.8759 82ZM85.0239 82V81.72C85.3413 81.7013 85.5793 81.664 85.7379 81.608C85.9059 81.552 86.0179 81.44 86.0739 81.272C86.1299 81.104 86.1579 80.852 86.1579 80.516V73.572C86.1579 73.2267 86.1299 72.9747 86.0739 72.816C86.0179 72.648 85.9059 72.536 85.7379 72.48C85.5793 72.4147 85.3413 72.3773 85.0239 72.368V72.088C85.2199 72.0973 85.4766 72.1067 85.7939 72.116C86.1113 72.1253 86.4519 72.13 86.8159 72.13C87.1426 72.13 87.4646 72.1253 87.7819 72.116C88.1086 72.1067 88.3793 72.0973 88.5939 72.088V72.368C88.2766 72.3773 88.0339 72.4147 87.8659 72.48C87.7073 72.536 87.5999 72.648 87.5439 72.816C87.4879 72.9747 87.4599 73.2267 87.4599 73.572V80.516C87.4599 80.852 87.4879 81.104 87.5439 81.272C87.5999 81.44 87.7073 81.552 87.8659 81.608C88.0339 81.664 88.2766 81.7013 88.5939 81.72V82C88.3793 81.9813 88.1086 81.972 87.7819 81.972C87.4646 81.9627 87.1426 81.958 86.8159 81.958C86.4519 81.958 86.1113 81.9627 85.7939 81.972C85.4766 81.972 85.2199 81.9813 85.0239 82ZM86.9699 77.156V76.876H92.4999V77.156H86.9699ZM115.892 72.088C115.855 72.4427 115.827 72.788 115.808 73.124C115.799 73.4507 115.794 73.7027 115.794 73.88C115.794 74.104 115.799 74.314 115.808 74.51C115.817 74.706 115.827 74.8787 115.836 75.028H115.514C115.449 74.3747 115.36 73.8613 115.248 73.488C115.136 73.1053 114.94 72.83 114.66 72.662C114.38 72.494 113.946 72.41 113.358 72.41H112.476C112.159 72.41 111.916 72.438 111.748 72.494C111.589 72.5407 111.482 72.648 111.426 72.816C111.37 72.9747 111.342 73.2267 111.342 73.572V80.516C111.342 80.852 111.375 81.104 111.44 81.272C111.515 81.44 111.655 81.552 111.86 81.608C112.065 81.664 112.364 81.7013 112.756 81.72V82C112.513 81.9813 112.205 81.972 111.832 81.972C111.459 81.9627 111.081 81.958 110.698 81.958C110.334 81.958 109.993 81.9627 109.676 81.972C109.359 81.972 109.102 81.9813 108.906 82V81.72C109.223 81.7013 109.461 81.664 109.62 81.608C109.788 81.552 109.9 81.44 109.956 81.272C110.012 81.104 110.04 80.852 110.04 80.516V73.572C110.04 73.2267 110.012 72.9747 109.956 72.816C109.9 72.648 109.788 72.536 109.62 72.48C109.461 72.4147 109.223 72.3773 108.906 72.368V72.088C109.251 72.0973 109.615 72.1067 109.998 72.116C110.381 72.116 110.759 72.1207 111.132 72.13C111.505 72.13 111.851 72.13 112.168 72.13C112.495 72.13 112.761 72.13 112.966 72.13C113.395 72.13 113.881 72.13 114.422 72.13C114.973 72.1207 115.463 72.1067 115.892 72.088ZM113.722 77.016C113.722 77.016 113.722 77.0627 113.722 77.156C113.722 77.2493 113.722 77.296 113.722 77.296H110.922C110.922 77.296 110.922 77.2493 110.922 77.156C110.922 77.0627 110.922 77.016 110.922 77.016H113.722ZM113.988 75.168C113.951 75.7 113.932 76.106 113.932 76.386C113.941 76.666 113.946 76.9227 113.946 77.156C113.946 77.3893 113.951 77.646 113.96 77.926C113.969 78.206 113.993 78.612 114.03 79.144H113.708C113.671 78.8453 113.624 78.556 113.568 78.276C113.521 77.9867 113.409 77.7533 113.232 77.576C113.064 77.3893 112.775 77.296 112.364 77.296V77.016C112.672 77.016 112.905 76.9553 113.064 76.834C113.232 76.7033 113.353 76.54 113.428 76.344C113.503 76.148 113.554 75.9473 113.582 75.742C113.61 75.5273 113.638 75.336 113.666 75.168H113.988ZM121.777 72.088C121.973 72.0973 122.229 72.1067 122.547 72.116C122.864 72.1253 123.177 72.13 123.485 72.13C123.923 72.13 124.343 72.1253 124.745 72.116C125.146 72.1067 125.431 72.102 125.599 72.102C126.355 72.102 126.98 72.2093 127.475 72.424C127.979 72.6387 128.352 72.9327 128.595 73.306C128.847 73.67 128.973 74.0807 128.973 74.538C128.973 74.818 128.917 75.1167 128.805 75.434C128.693 75.7513 128.497 76.05 128.217 76.33C127.946 76.61 127.573 76.8433 127.097 77.03C126.621 77.2073 126.019 77.296 125.291 77.296H123.947V77.016H125.151C125.813 77.016 126.317 76.9133 126.663 76.708C127.017 76.4933 127.255 76.2133 127.377 75.868C127.507 75.5133 127.573 75.1213 127.573 74.692C127.573 73.9547 127.395 73.3853 127.041 72.984C126.695 72.5733 126.098 72.368 125.249 72.368C124.819 72.368 124.539 72.4473 124.409 72.606C124.278 72.7647 124.213 73.0867 124.213 73.572V80.516C124.213 80.852 124.241 81.104 124.297 81.272C124.353 81.44 124.46 81.552 124.619 81.608C124.787 81.664 125.029 81.7013 125.347 81.72V82C125.132 81.9813 124.861 81.972 124.535 81.972C124.217 81.9627 123.895 81.958 123.569 81.958C123.205 81.958 122.864 81.9627 122.547 81.972C122.229 81.972 121.973 81.9813 121.777 82V81.72C122.094 81.7013 122.332 81.664 122.491 81.608C122.659 81.552 122.771 81.44 122.827 81.272C122.883 81.104 122.911 80.852 122.911 80.516V73.572C122.911 73.2267 122.883 72.9747 122.827 72.816C122.771 72.648 122.659 72.536 122.491 72.48C122.332 72.4147 122.094 72.3773 121.777 72.368V72.088ZM124.003 77.058C124.507 77.0767 124.903 77.1 125.193 77.128C125.482 77.1467 125.715 77.1653 125.893 77.184C126.079 77.2027 126.257 77.226 126.425 77.254C127.05 77.3567 127.498 77.548 127.769 77.828C128.049 78.0987 128.254 78.5233 128.385 79.102L128.735 80.53C128.828 80.9407 128.921 81.2393 129.015 81.426C129.117 81.6033 129.271 81.6873 129.477 81.678C129.635 81.6687 129.766 81.6173 129.869 81.524C129.981 81.4307 130.097 81.3047 130.219 81.146L130.429 81.3C130.233 81.5893 130.027 81.8133 129.813 81.972C129.607 82.1213 129.313 82.196 128.931 82.196C128.585 82.196 128.282 82.0933 128.021 81.888C127.759 81.6827 127.563 81.2813 127.433 80.684L127.125 79.284C127.041 78.8827 126.943 78.5373 126.831 78.248C126.728 77.9493 126.579 77.716 126.383 77.548C126.196 77.38 125.916 77.296 125.543 77.296H124.031L124.003 77.058ZM142.741 72.088C142.703 72.4147 142.675 72.732 142.657 73.04C142.647 73.348 142.643 73.5813 142.643 73.74C142.643 73.908 142.647 74.0713 142.657 74.23C142.666 74.3793 142.675 74.5053 142.685 74.608H142.363C142.307 74.0573 142.227 73.6233 142.125 73.306C142.022 72.9793 141.845 72.7507 141.593 72.62C141.35 72.48 140.981 72.41 140.487 72.41H139.325C139.007 72.41 138.765 72.438 138.597 72.494C138.438 72.5407 138.331 72.648 138.275 72.816C138.219 72.9747 138.191 73.2267 138.191 73.572V80.516C138.191 80.852 138.219 81.104 138.275 81.272C138.331 81.44 138.438 81.552 138.597 81.608C138.765 81.6547 139.007 81.678 139.325 81.678H140.347C140.935 81.678 141.378 81.5987 141.677 81.44C141.985 81.2813 142.204 81.0247 142.335 80.67C142.475 80.306 142.577 79.816 142.643 79.2H142.965C142.937 79.452 142.923 79.788 142.923 80.208C142.923 80.3853 142.927 80.642 142.937 80.978C142.955 81.3047 142.983 81.6453 143.021 82C142.545 81.9813 142.008 81.972 141.411 81.972C140.813 81.9627 140.281 81.958 139.815 81.958C139.609 81.958 139.343 81.958 139.017 81.958C138.699 81.958 138.354 81.9627 137.981 81.972C137.607 81.972 137.229 81.9767 136.847 81.986C136.464 81.986 136.1 81.9907 135.755 82V81.72C136.072 81.7013 136.31 81.664 136.469 81.608C136.637 81.552 136.749 81.44 136.805 81.272C136.861 81.104 136.889 80.852 136.889 80.516V73.572C136.889 73.2267 136.861 72.9747 136.805 72.816C136.749 72.648 136.637 72.536 136.469 72.48C136.31 72.4147 136.072 72.3773 135.755 72.368V72.088C136.1 72.0973 136.464 72.1067 136.847 72.116C137.229 72.116 137.607 72.1207 137.981 72.13C138.354 72.13 138.699 72.13 139.017 72.13C139.343 72.13 139.609 72.13 139.815 72.13C140.244 72.13 140.729 72.13 141.271 72.13C141.821 72.1207 142.311 72.1067 142.741 72.088ZM140.333 76.876C140.333 76.876 140.333 76.9227 140.333 77.016C140.333 77.1093 140.333 77.156 140.333 77.156H137.771C137.771 77.156 137.771 77.1093 137.771 77.016C137.771 76.9227 137.771 76.876 137.771 76.876H140.333ZM140.739 75.028C140.701 75.56 140.683 75.966 140.683 76.246C140.692 76.526 140.697 76.7827 140.697 77.016C140.697 77.2493 140.701 77.506 140.711 77.786C140.72 78.066 140.743 78.472 140.781 79.004H140.459C140.421 78.7053 140.375 78.416 140.319 78.136C140.272 77.8467 140.16 77.6133 139.983 77.436C139.815 77.2493 139.525 77.156 139.115 77.156V76.876C139.423 76.876 139.656 76.8153 139.815 76.694C139.983 76.5633 140.104 76.4 140.179 76.204C140.253 76.008 140.305 75.8073 140.333 75.602C140.361 75.3873 140.389 75.196 140.417 75.028H140.739ZM153.12 72.018L156.536 80.824C156.676 81.1787 156.835 81.4167 157.012 81.538C157.189 81.65 157.353 81.7107 157.502 81.72V82C157.315 81.9813 157.087 81.972 156.816 81.972C156.545 81.9627 156.275 81.958 156.004 81.958C155.64 81.958 155.299 81.9627 154.982 81.972C154.665 81.972 154.408 81.9813 154.212 82V81.72C154.688 81.7013 154.991 81.622 155.122 81.482C155.253 81.3327 155.225 81.02 155.038 80.544L152.434 73.586L152.658 73.404L150.222 79.732C150.073 80.1053 149.984 80.4227 149.956 80.684C149.928 80.936 149.951 81.1367 150.026 81.286C150.11 81.4353 150.245 81.5427 150.432 81.608C150.628 81.6733 150.871 81.7107 151.16 81.72V82C150.899 81.9813 150.623 81.972 150.334 81.972C150.054 81.9627 149.793 81.958 149.55 81.958C149.317 81.958 149.116 81.9627 148.948 81.972C148.789 81.972 148.64 81.9813 148.5 82V81.72C148.687 81.6733 148.878 81.566 149.074 81.398C149.27 81.2207 149.447 80.922 149.606 80.502L152.896 72.018C152.933 72.018 152.971 72.018 153.008 72.018C153.045 72.018 153.083 72.018 153.12 72.018ZM154.828 77.968V78.248H150.656L150.796 77.968H154.828ZM170.653 72.088V72.368C170.364 72.4053 170.084 72.4987 169.813 72.648C169.542 72.7973 169.272 73.0447 169.001 73.39L166.299 76.848L166.607 76.162L169.967 80.866C170.126 81.0993 170.298 81.2813 170.485 81.412C170.672 81.5427 170.91 81.6453 171.199 81.72V82C170.975 81.9813 170.695 81.972 170.359 81.972C170.032 81.9627 169.752 81.958 169.519 81.958C169.36 81.958 169.164 81.9627 168.931 81.972C168.707 81.972 168.422 81.9813 168.077 82V81.72C168.394 81.7013 168.595 81.6453 168.679 81.552C168.763 81.4587 168.73 81.3047 168.581 81.09L166.537 78.01C166.35 77.7207 166.182 77.506 166.033 77.366C165.893 77.2167 165.744 77.1187 165.585 77.072C165.436 77.0253 165.244 76.9973 165.011 76.988V76.708C165.403 76.6987 165.73 76.624 165.991 76.484C166.262 76.3347 166.486 76.148 166.663 75.924L168.007 74.216C168.315 73.824 168.525 73.4927 168.637 73.222C168.749 72.9513 168.744 72.746 168.623 72.606C168.502 72.4567 168.245 72.3773 167.853 72.368V72.088C168.03 72.0973 168.212 72.1067 168.399 72.116C168.586 72.116 168.768 72.1207 168.945 72.13C169.132 72.13 169.304 72.13 169.463 72.13C169.706 72.13 169.93 72.1253 170.135 72.116C170.34 72.1067 170.513 72.0973 170.653 72.088ZM166.201 72.088V72.368C165.884 72.3773 165.641 72.4147 165.473 72.48C165.314 72.536 165.207 72.648 165.151 72.816C165.095 72.9747 165.067 73.2267 165.067 73.572V80.516C165.067 80.852 165.095 81.104 165.151 81.272C165.207 81.44 165.314 81.552 165.473 81.608C165.641 81.664 165.884 81.7013 166.201 81.72V82C165.986 81.9813 165.716 81.972 165.389 81.972C165.072 81.9627 164.75 81.958 164.423 81.958C164.059 81.958 163.718 81.9627 163.401 81.972C163.084 81.972 162.827 81.9813 162.631 82V81.72C162.948 81.7013 163.186 81.664 163.345 81.608C163.513 81.552 163.625 81.44 163.681 81.272C163.737 81.104 163.765 80.852 163.765 80.516V73.572C163.765 73.2267 163.737 72.9747 163.681 72.816C163.625 72.648 163.513 72.536 163.345 72.48C163.186 72.4147 162.948 72.3773 162.631 72.368V72.088C162.827 72.0973 163.084 72.1067 163.401 72.116C163.718 72.1253 164.059 72.13 164.423 72.13C164.75 72.13 165.072 72.1253 165.389 72.116C165.716 72.1067 165.986 72.0973 166.201 72.088ZM179.701 71.934C180.167 71.934 180.522 71.99 180.765 72.102C181.007 72.2047 181.222 72.3213 181.409 72.452C181.521 72.5173 181.609 72.5687 181.675 72.606C181.749 72.634 181.819 72.648 181.885 72.648C181.978 72.648 182.043 72.5967 182.081 72.494C182.127 72.3913 182.165 72.2373 182.193 72.032H182.515C182.505 72.1907 182.491 72.382 182.473 72.606C182.463 72.8207 182.454 73.11 182.445 73.474C182.445 73.8287 182.445 74.3 182.445 74.888H182.123C182.095 74.44 181.997 74.0107 181.829 73.6C181.661 73.1893 181.413 72.8533 181.087 72.592C180.769 72.3307 180.349 72.2 179.827 72.2C179.332 72.2 178.921 72.3493 178.595 72.648C178.277 72.9467 178.119 73.3387 178.119 73.824C178.119 74.244 178.226 74.5987 178.441 74.888C178.655 75.168 178.94 75.4247 179.295 75.658C179.659 75.882 180.051 76.1247 180.471 76.386C180.956 76.6847 181.385 76.9833 181.759 77.282C182.141 77.5713 182.44 77.8933 182.655 78.248C182.879 78.6027 182.991 79.032 182.991 79.536C182.991 80.1333 182.855 80.628 182.585 81.02C182.314 81.412 181.955 81.706 181.507 81.902C181.059 82.098 180.564 82.196 180.023 82.196C179.528 82.196 179.136 82.14 178.847 82.028C178.557 81.916 178.31 81.7993 178.105 81.678C177.899 81.5473 177.741 81.482 177.629 81.482C177.535 81.482 177.465 81.5333 177.419 81.636C177.381 81.7387 177.349 81.8927 177.321 82.098H176.999C177.017 81.902 177.027 81.6733 177.027 81.412C177.036 81.1413 177.041 80.7913 177.041 80.362C177.05 79.9327 177.055 79.3913 177.055 78.738H177.377C177.414 79.298 177.517 79.8207 177.685 80.306C177.862 80.7913 178.128 81.1833 178.483 81.482C178.847 81.7713 179.327 81.916 179.925 81.916C180.233 81.916 180.522 81.8553 180.793 81.734C181.073 81.6033 181.301 81.4027 181.479 81.132C181.656 80.852 181.745 80.4927 181.745 80.054C181.745 79.6713 181.651 79.34 181.465 79.06C181.287 78.7707 181.035 78.5047 180.709 78.262C180.382 78.01 179.999 77.7533 179.561 77.492C179.122 77.2213 178.711 76.946 178.329 76.666C177.946 76.386 177.638 76.064 177.405 75.7C177.181 75.3267 177.069 74.8787 177.069 74.356C177.069 73.8053 177.19 73.3527 177.433 72.998C177.685 72.634 178.011 72.368 178.413 72.2C178.814 72.0227 179.243 71.934 179.701 71.934Z" fill="white"/>
<path d="M97.88 50V49.44C98.5147 49.4027 98.9907 49.328 99.308 49.216C99.644 49.104 99.868 48.88 99.98 48.544C100.092 48.208 100.148 47.704 100.148 47.032V33.144C100.148 32.4533 100.092 31.9493 99.98 31.632C99.868 31.296 99.644 31.072 99.308 30.96C98.9907 30.8293 98.5147 30.7547 97.88 30.736V30.176C98.3093 30.1947 98.8507 30.2133 99.504 30.232C100.157 30.2507 100.801 30.26 101.436 30.26C102.164 30.26 102.845 30.2507 103.48 30.232C104.115 30.2133 104.628 30.1947 105.02 30.176V30.736C104.385 30.7547 103.9 30.8293 103.564 30.96C103.247 31.072 103.032 31.296 102.92 31.632C102.808 31.9493 102.752 32.4533 102.752 33.144V47.032C102.752 47.704 102.808 48.208 102.92 48.544C103.032 48.88 103.247 49.104 103.564 49.216C103.9 49.328 104.385 49.4027 105.02 49.44V50C104.628 49.9627 104.115 49.944 103.48 49.944C102.845 49.9253 102.164 49.916 101.436 49.916C100.801 49.916 100.157 49.9253 99.504 49.944C98.8507 49.944 98.3093 49.9627 97.88 50ZM86.176 50V49.44C86.8107 49.4027 87.2867 49.328 87.604 49.216C87.94 49.104 88.164 48.88 88.276 48.544C88.388 48.208 88.444 47.704 88.444 47.032V33.144C88.444 32.4533 88.388 31.9493 88.276 31.632C88.164 31.296 87.94 31.072 87.604 30.96C87.2867 30.8293 86.8107 30.7547 86.176 30.736V30.176C86.568 30.1947 87.0813 30.2133 87.716 30.232C88.3507 30.2507 89.032 30.26 89.76 30.26C90.4133 30.26 91.0573 30.2507 91.692 30.232C92.3453 30.2133 92.8867 30.1947 93.316 30.176V30.736C92.6813 30.7547 92.196 30.8293 91.86 30.96C91.5427 31.072 91.328 31.296 91.216 31.632C91.104 31.9493 91.048 32.4533 91.048 33.144V47.032C91.048 47.704 91.104 48.208 91.216 48.544C91.328 48.88 91.5427 49.104 91.86 49.216C92.196 49.328 92.6813 49.4027 93.316 49.44V50C92.8867 49.9627 92.3453 49.944 91.692 49.944C91.0573 49.9253 90.4133 49.916 89.76 49.916C89.032 49.916 88.3507 49.9253 87.716 49.944C87.0813 49.944 86.568 49.9627 86.176 50ZM90.068 40.312V39.752H101.128V40.312H90.068ZM112.939 30.176C112.865 30.8853 112.809 31.576 112.771 32.248C112.753 32.9013 112.743 33.4053 112.743 33.76C112.743 34.208 112.753 34.628 112.771 35.02C112.79 35.412 112.809 35.7573 112.827 36.056H112.183C112.053 34.7493 111.875 33.7227 111.651 32.976C111.427 32.2107 111.035 31.66 110.475 31.324C109.915 30.988 109.047 30.82 107.871 30.82H106.107C105.473 30.82 104.987 30.876 104.651 30.988C104.334 31.0813 104.119 31.296 104.007 31.632C103.895 31.9493 103.839 32.4533 103.839 33.144V47.032C103.839 47.704 103.905 48.208 104.035 48.544C104.185 48.88 104.465 49.104 104.875 49.216C105.286 49.328 105.883 49.4027 106.667 49.44V50C106.182 49.9627 105.566 49.944 104.819 49.944C104.073 49.9253 103.317 49.916 102.551 49.916C101.823 49.916 101.142 49.9253 100.507 49.944C99.8727 49.944 99.3594 49.9627 98.9674 50V49.44C99.6021 49.4027 100.078 49.328 100.395 49.216C100.731 49.104 100.955 48.88 101.067 48.544C101.179 48.208 101.235 47.704 101.235 47.032V33.144C101.235 32.4533 101.179 31.9493 101.067 31.632C100.955 31.296 100.731 31.072 100.395 30.96C100.078 30.8293 99.6021 30.7547 98.9674 30.736V30.176C99.6581 30.1947 100.386 30.2133 101.151 30.232C101.917 30.232 102.673 30.2413 103.419 30.26C104.166 30.26 104.857 30.26 105.491 30.26C106.145 30.26 106.677 30.26 107.087 30.26C107.946 30.26 108.917 30.26 109.999 30.26C111.101 30.2413 112.081 30.2133 112.939 30.176ZM108.599 40.032C108.599 40.032 108.599 40.1253 108.599 40.312C108.599 40.4987 108.599 40.592 108.599 40.592H102.999C102.999 40.592 102.999 40.4987 102.999 40.312C102.999 40.1253 102.999 40.032 102.999 40.032H108.599ZM109.131 36.336C109.057 37.4 109.019 38.212 109.019 38.772C109.038 39.332 109.047 39.8453 109.047 40.312C109.047 40.7787 109.057 41.292 109.075 41.852C109.094 42.412 109.141 43.224 109.215 44.288H108.571C108.497 43.6907 108.403 43.112 108.291 42.552C108.198 41.9733 107.974 41.5067 107.619 41.152C107.283 40.7787 106.705 40.592 105.883 40.592V40.032C106.499 40.032 106.966 39.9107 107.283 39.668C107.619 39.4067 107.862 39.08 108.011 38.688C108.161 38.296 108.263 37.8947 108.319 37.484C108.375 37.0547 108.431 36.672 108.487 36.336H109.131Z" fill="white"/>
</svg>
